<svg width="72" height="71" viewBox="0 0 72 71" fill="none" xmlns="http://www.w3.org/2000/svg">
<path d="M12 49.2774V8H21.6118L40.6492 41.3223L36.567 37.665L53.2467 8H59.8821L60 49.2774H49.2678L49.1499 24.3341H50.9779L40.6492 41.3223L45.5257 35.8363L20.5504 24.3341H22.7912V49.2774H12Z" fill="url(#paint0_linear_2464_1057)"/>
<path d="M12 49.2458L16.7256 53.5127L23.333 19.1436L37.0819 19.784C40.7772 19.784 43.9615 20.3933 46.6347 21.612C49.308 22.7914 51.3718 24.5014 52.8264 26.7422C54.2809 28.983 55.0082 31.6562 55.0082 34.7618C55.0082 37.8281 54.2809 40.4817 52.8264 42.7225C51.3718 44.9239 49.308 46.6143 46.6347 47.7937C43.9615 48.973 40.7772 49.5627 37.0819 49.5627H24.5217L28.7674 45.376L25.4118 61.0614L23.333 53.5127H16.7256L20.941 52.0904L12 49.2458ZM44.3065 61.8433V59.8114L35.1359 46.0836H45.3374L52.6372 53.1064L48.9798 62.0465L51.5981 59.8114L49.183 54.5286L54.0595 58.9594L52.6372 53.1064L45.7288 61.8433L44.3065 59.8114L42.4779 61.0614L44.3065 61.8433ZM28.7674 46.4374L24.5217 41.9559H36.5512C39.4996 41.9559 41.7011 41.3269 43.1556 40.0689C44.6102 38.7716 45.3374 37.0026 45.3374 34.7618C45.3374 32.4817 44.6102 30.7127 43.1556 29.4547C41.7011 28.1967 39.4996 27.5677 36.5512 27.5677H24.5217L28.7674 23.0272V46.4374Z" fill="#10E5F2"/>
<defs>
<linearGradient id="paint0_linear_2464_1057" x1="14.6414" y1="9.42229" x2="59.9516" y2="49.4499" gradientUnits="userSpaceOnUse">
<stop stop-color="#10E5F2"/>
<stop offset="1" stop-color="#104FF2"/>
</linearGradient>
</defs>
</svg>
